<svg width="428" height="300" viewBox="0 0 428 300" fill="none" xmlns="http://www.w3.org/2000/svg">
<path d="M427.031 299.519H0V298.556H427.031C427.297 298.556 427.512 298.771 427.512 299.037C427.512 299.303 427.297 299.519 427.031 299.519Z" fill="#3F3D56"/>
<path d="M105.417 298.556H78.6628C74.6641 298.556 71.4108 295.302 71.4108 291.303V212.776C71.4108 208.777 74.6641 205.523 78.6628 205.523H105.417C109.415 205.523 112.669 208.777 112.669 212.776V291.303C112.669 295.302 109.415 298.556 105.417 298.556Z" fill="#3F3D56"/>
<path d="M367.525 298.71H340.771C336.773 298.71 333.519 295.456 333.519 291.457V212.93C333.519 208.931 336.773 205.677 340.771 205.677H367.525C371.524 205.677 374.777 208.931 374.777 212.93V291.457C374.777 295.456 371.524 298.71 367.525 298.71Z" fill="#3F3D56"/>
<path d="M111.759 103.43L72.3623 159.385C67.6082 166.137 65.7234 174.498 67.1203 182.637L79.0939 252.396C81.6657 267.38 94.6574 278.331 109.86 278.331H341.369C357.868 278.331 371.518 265.491 372.527 249.023L377.147 173.55C377.697 164.565 374.342 155.781 367.942 149.45L312.681 94.7856C306.615 88.7853 298.357 85.5295 289.829 85.7753L136.384 90.1983C126.549 90.4818 117.423 95.3854 111.759 103.43H111.759Z" fill="#EB1D36"/>
<path d="M117.76 113.364L110.228 127.448C105.428 136.424 112.426 147.023 123.074 146.904L311.665 144.81C323.249 144.681 329.773 132.194 322.845 123.412L310.97 108.36C308.232 104.888 303.89 102.877 299.311 102.96L130.129 106.023C124.883 106.118 120.125 108.942 117.76 113.364H117.76Z" fill="white"/>
<path d="M353.831 142.756C352.613 142.756 351.426 142.304 350.515 141.479C349.482 140.545 348.89 139.209 348.89 137.817L348.89 134.721L349.511 120.452C349.626 117.802 351.794 115.727 354.446 115.727H374.078C375.906 115.727 377.576 116.729 378.437 118.342L380.776 122.728C381.516 124.115 381.557 125.727 380.89 127.15C380.223 128.573 378.957 129.572 377.418 129.89L362.617 132.953C361.087 133.269 359.88 134.402 359.469 135.911L358.595 139.116C358.06 141.076 356.342 142.529 354.321 142.731C354.158 142.748 353.994 142.756 353.831 142.756Z" fill="#EB1D36"/>
<path d="M88.6312 142.731C86.6096 142.529 84.8917 141.076 84.3569 139.116L83.4827 135.911C83.0715 134.402 81.8651 133.269 80.3349 132.953L65.5335 129.89C63.9946 129.572 62.729 128.574 62.0618 127.15C61.3946 125.727 61.4361 124.115 62.1756 122.728L64.5148 118.342C65.3755 116.729 67.0456 115.727 68.8737 115.727H88.5064C91.1585 115.727 93.3259 117.802 93.4413 120.452L94.0618 134.721L94.0622 137.817C94.0622 139.209 93.4697 140.545 92.4371 141.479C91.5259 142.304 90.3393 142.756 89.1207 142.756C88.9579 142.756 88.7944 142.748 88.6312 142.731L88.6312 142.731Z" fill="#EB1D36"/>
<path d="M115.905 203.905C126.627 203.905 135.32 195.213 135.32 184.49C135.32 173.767 126.627 165.075 115.905 165.075C105.182 165.075 96.4891 173.767 96.4891 184.49C96.4891 195.213 105.182 203.905 115.905 203.905Z" fill="white"/>
<path d="M339.587 204.31C350.309 204.31 359.002 195.617 359.002 184.894C359.002 174.172 350.309 165.479 339.587 165.479C328.864 165.479 320.171 174.172 320.171 184.894C320.171 195.617 328.864 204.31 339.587 204.31Z" fill="white"/>
<path d="M90.0608 80.7645C91.8487 81.7653 93.3709 83.1795 94.5001 84.8892L107.249 92.4702L128.91 102.616C128.91 102.616 134.019 84.4561 140.122 83.2962C146.225 82.1364 156.295 95.5952 156.295 95.5952C156.295 95.5952 138.742 124.016 131.096 121.102C123.45 118.188 106.366 104.036 106.366 104.036L104.134 102.222L89.9405 92.7795C87.8947 92.6551 85.9086 92.0424 84.1482 90.9928C79.7088 88.4283 77.4336 84.0589 79.0662 81.2341C80.6987 78.4091 85.6202 78.1985 90.0608 80.7645V80.7645Z" fill="#A0616A"/>
<path d="M132.282 88.6467L143.36 75.6061L150.052 76.5702C158.261 77.7528 162.824 86.7066 158.957 94.0434L155.102 101.359L132.282 88.6467Z" fill="#E6E6E6"/>
<path d="M96.2613 105.72L76.7644 78.8419C76.4752 78.4451 76.5459 77.889 76.925 77.576L81.6021 73.7139C81.8049 73.5464 82.0706 73.4727 82.3307 73.511C82.5904 73.5498 82.8242 73.6966 82.9708 73.9162L102.342 102.989C102.502 103.228 102.542 103.521 102.454 103.795C102.364 104.068 102.158 104.282 101.887 104.381L97.3363 106.047C97.0017 106.17 96.6281 106.088 96.3749 105.849C96.3336 105.81 96.2953 105.767 96.2613 105.72Z" fill="#3F3D56"/>
<path d="M97.8113 104.077L77.6327 77.9213C77.3336 77.5351 77.3543 77.032 77.6795 76.7761L81.6921 73.6185C81.8661 73.4815 82.1058 73.4354 82.3493 73.4914C82.5924 73.5477 82.8203 73.7008 82.9734 73.9134L103.212 102.067C103.379 102.298 103.44 102.57 103.38 102.813C103.319 103.056 103.146 103.235 102.904 103.304L98.8311 104.463C98.5317 104.548 98.1798 104.443 97.9266 104.204C97.8853 104.165 97.8464 104.122 97.8113 104.077H97.8113Z" fill="#E6E6E6"/>
<path d="M89.7601 267.621L80.9864 286.553L66.6716 280.089L77.754 265.774L89.7601 267.621Z" fill="#A0616A"/>
<path d="M74.9834 280.551L85.6041 279.165C85.6041 279.165 92.9924 296.713 87.4512 297.636C81.91 298.56 38.5036 302.716 38.5036 297.174C38.5036 291.633 56.5126 284.706 56.5126 284.706L68.9804 275.933L74.9834 280.551Z" fill="#2F2E41"/>
<path d="M158.564 145.714C158.564 145.714 171.493 165.108 143.787 177.114L114.234 219.597L89.7601 272.7L74.9835 267.159L100.843 186.811L115.619 150.793L122.546 139.711L158.564 145.714Z" fill="#2F2E41"/>
<path d="M55.8267 217.181L49.9454 237.202L34.8328 232.922L43.6795 217.127L55.8267 217.181Z" fill="#A0616A"/>
<path d="M43.1217 232.151L53.4213 229.212C53.4213 229.212 63.3202 245.476 57.9761 247.208C52.6321 248.94 10.3155 259.461 9.49712 253.98C8.67872 248.5 25.4672 238.99 25.4672 238.99L36.5025 228.471L43.1217 232.151H43.1217Z" fill="#2F2E41"/>
<path d="M130.397 141.835L59.4271 157.236C53.9511 158.425 49.7053 162.754 48.6241 168.252L38.6908 218.763L60.4306 225.82L70.1943 180.722L133.202 178.281L130.397 141.835H130.397Z" fill="#2F2E41"/>
<path d="M148.238 56.4968L139.463 73.6874L162.806 77.3192L162.552 54.2069L148.238 56.4968Z" fill="#A0616A"/>
<path d="M153.11 63.5496C162.085 63.5496 169.36 56.2743 169.36 47.2998C169.36 38.3253 162.085 31.05 153.11 31.05C144.136 31.05 136.861 38.3253 136.861 47.2998C136.861 56.2743 144.136 63.5496 153.11 63.5496Z" fill="#A0616A"/>
<path d="M163.643 151.255L166.323 107.845C168.642 97.4539 167.87 86.6119 164.102 76.6546L163.181 66.2892L141.94 67.6745L132.936 82.2202L124.393 116.622L122.546 139.711L163.643 151.255V151.255Z" fill="#E6E6E6"/>
<path d="M101.483 117.666C103.512 117.38 105.58 117.585 107.514 118.262L122.251 116.579L145.634 111.543C145.634 111.543 138.708 93.9953 142.864 89.3776C147.02 84.7599 163.182 89.3776 163.182 89.3776C163.182 89.3776 166.414 122.625 158.564 124.934C150.714 127.243 128.549 126.319 128.549 126.319L125.675 126.227L108.661 127.303C106.957 128.442 105.005 129.156 102.969 129.387C97.8827 130.033 93.4268 127.932 93.0163 124.695C92.6057 121.458 96.3956 118.312 101.483 117.666V117.666Z" fill="#A0616A"/>
<path d="M139.862 98.3821L140.786 81.2967L146.696 78.013C153.946 73.9854 162.998 78.3501 164.362 86.5306L165.721 94.688L139.862 98.3822V98.3821Z" fill="#E6E6E6"/>
<path d="M165.78 57.2871C165.78 57.2871 167.295 49.7107 162.749 49.2056C158.203 48.7005 153.658 39.6088 153.658 39.6088C153.658 39.6088 137.972 36.8728 137.467 43.439C136.961 50.0052 137.155 48.5459 137.155 48.5459C137.155 48.5459 133.426 46.9746 134.941 40.4084C135.374 38.5324 136.425 36.8212 137.707 35.3339C141.824 30.5538 148.15 28.2956 154.417 29.0182C157.072 29.3242 164.974 31.8435 166.501 33.5608C170.541 38.1067 172.346 52.2362 165.78 57.2871V57.2871Z" fill="#3F3D56"/>
<path d="M112.206 249.928C109.355 249.928 106.84 248.436 105.472 245.932C104.096 243.413 104.209 240.474 105.772 238.068L106.005 238.219L105.772 238.068L110.841 230.27C112.262 228.084 114.668 226.778 117.277 226.778H337.714C339.962 226.778 342.088 227.757 343.549 229.466L349.11 235.971C351.075 238.269 351.514 241.403 350.257 244.152C349 246.901 346.341 248.619 343.319 248.636L112.252 249.928H112.206Z" fill="#3F3D56"/>
<path d="M373.537 137.03C377.593 139.682 382.248 139.74 383.936 137.159C385.623 134.578 383.703 130.336 379.646 127.684C378.04 126.602 376.199 125.92 374.275 125.696L356.951 114.675L351.953 122.915L369.562 132.905C370.539 134.578 371.902 135.992 373.537 137.03L373.537 137.03Z" fill="#FFB6B6"/>
<path d="M324.265 109.872L366.765 131.839L370.462 121.67L341.635 99.0891L339.716 66.1445C339.481 62.1214 337.464 58.4748 334.18 56.1391C330.897 53.8044 326.79 53.0947 322.912 54.1927C316.01 56.1481 311.895 63.3797 313.74 70.3124L324.265 109.872Z" fill="#E6E6E6"/>
<path d="M334.531 50.9203L336.518 38.5009L323.105 33.0364L321.118 51.9139L334.531 50.9203Z" fill="#FFB6B6"/>
<path d="M292.292 121.589C292.292 121.589 288.441 145.655 303.844 148.543C319.246 151.431 354.383 153.356 354.383 153.356L399.628 208.227L408.773 198.12L369.786 137.954L338.499 118.219L292.292 121.589Z" fill="#2F2E41"/>
<path d="M295.968 117.693C295.968 117.693 286.988 140.351 301.397 146.511C315.806 152.672 349.688 162.174 349.688 162.174L381.951 225.554L393.072 217.671L368.066 150.48L341.806 124.428L295.968 117.693V117.693Z" fill="#2F2E41"/>
<path d="M337.055 48.9085L319.728 46.0205L307.984 52.5574C301.148 62.4999 300.583 94.0343 298.97 105.991L289.404 128.327L319.728 123.995L344.275 121.589L336.093 68.1615L337.055 48.9085L337.055 48.9085Z" fill="#E6E6E6"/>
<path d="M331.141 42.4932C338.695 42.4932 344.819 36.3694 344.819 28.8152C344.819 21.2611 338.695 15.1372 331.141 15.1372C323.587 15.1372 317.463 21.2611 317.463 28.8152C317.463 36.3694 323.587 42.4932 331.141 42.4932Z" fill="#FFB6B6"/>
<path d="M330.05 10.4261C330.445 10.6571 330.976 10.3076 331.102 9.86723C331.229 9.42686 331.081 8.95931 330.935 8.52511C330.689 7.79649 330.443 7.06787 330.197 6.33925C329.674 4.78899 329.118 3.18457 327.984 2.00462C326.273 0.223676 323.554 -0.229386 321.107 0.0988405C317.963 0.52035 314.862 2.22244 313.4 5.03708C311.939 7.85171 312.561 11.7791 315.202 13.5352C311.438 17.8493 310.126 22.6572 310.333 28.3787C310.54 34.1002 316.775 39.3659 320.841 43.3965C321.749 42.8461 322.575 40.2665 322.076 39.3294C321.576 38.3923 322.292 37.3066 321.673 36.4434C321.055 35.5802 320.538 36.9547 321.163 36.0964C321.557 35.5548 320.018 34.3089 320.604 33.9847C323.44 32.4169 324.384 28.8814 326.165 26.1741C328.314 22.9085 331.991 20.697 335.883 20.3302C338.027 20.1281 340.292 20.4941 342.049 21.7387C343.806 22.9834 344.944 25.2075 344.536 27.322C345.592 26.2504 346.117 24.6801 345.919 23.1892C345.721 21.6984 344.803 20.3197 343.505 19.561C344.294 16.9499 343.618 13.9463 341.785 11.9257C339.953 9.90516 332.518 10.2493 329.843 10.7811" fill="#2F2E41"/>
<path d="M329.634 20.4094C326.09 20.792 323.532 23.8616 321.371 26.6964C320.126 28.3303 318.821 30.1347 318.853 32.1889C318.884 34.2657 320.273 36.047 320.936 38.0151C322.021 41.2322 320.964 45.0597 318.382 47.264C320.933 47.7481 323.691 45.8351 324.132 43.2759C324.645 40.2966 322.386 37.4211 322.654 34.4099C322.889 31.7569 324.98 29.7152 326.757 27.7316C328.535 25.748 330.204 23.1158 329.386 20.5811" fill="#2F2E41"/>
<path d="M362.666 139.603C366.722 142.255 371.377 142.312 373.065 139.731C374.752 137.15 372.832 132.909 368.775 130.256C367.169 129.174 365.328 128.493 363.404 128.269L346.08 117.248L341.082 125.488L358.691 135.478C359.668 137.15 361.031 138.565 362.666 139.603V139.603Z" fill="#FFB6B6"/>
<path d="M313.394 112.445L355.894 134.411L359.591 124.243L330.764 101.662L328.845 68.7172C328.61 64.694 326.593 61.0474 323.309 58.7118C320.026 56.3771 315.919 55.6673 312.041 56.7653C305.139 58.7207 301.024 65.9524 302.869 72.8851L313.394 112.445Z" fill="#E6E6E6"/>
<path d="M383.482 217.051L384.466 217.613C384.466 217.613 391.205 213.763 394.574 217.613C397.943 221.464 400.35 231.09 400.35 231.09C400.35 231.09 414.308 242.642 406.126 242.642C399.966 242.642 385.352 235.824 378.502 232.452C376.315 231.376 375.297 228.819 376.147 226.535C376.856 224.631 377.773 222.633 378.69 221.945C379.653 221.223 380.254 219.659 380.615 218.275C380.942 217.021 382.357 216.408 383.482 217.051Z" fill="#2F2E41"/>
<path d="M402.254 198.761L403.238 199.323C403.238 199.323 409.976 195.472 413.346 199.323C416.715 203.173 419.121 212.8 419.121 212.8C419.121 212.8 433.08 224.352 424.897 224.352C418.738 224.352 404.123 217.533 397.273 214.162C395.087 213.085 394.069 210.528 394.919 208.244C395.628 206.34 396.545 204.342 397.462 203.655C398.424 202.933 399.026 201.368 399.387 199.985C399.714 198.731 401.129 198.118 402.254 198.761Z" fill="#2F2E41"/>
</svg>
